<svg xmlns="http://www.w3.org/2000/svg" width="52" height="51" fill="none" viewBox="0 0 52 51">
  <path fill="url(#paint0_linear_6_229)" fill-rule="evenodd" d="M39.492 40.003a19.947 19.947 0 006.467-14.727c0-11.046-8.954-20-20-20-11.045 0-20 8.954-20 20a19.947 19.947 0 006.468 14.727h27.065z" clip-rule="evenodd"/>
  <path fill="#FAFAFA" d="M23.063 30.48l-2.757-.667s.324-.545.394-.935c.057-.316 0-.822 0-.822l1.424-.606.363.606.576 2.423zM28.99 30.48l2.757-.667s-.314-.585-.393-.98c-.06-.296 0-.777 0-.777l-1.424-.606-.364.606-.575 2.423z"/>
  <path fill="#E8BEAC" d="M13.265 40.004c0-6.486 5.259-11.745 11.745-11.745h2.397c6.487 0 11.745 5.258 11.745 11.745H13.265z"/>
  <path fill="#E8BEAC" d="M21.74 23.407h8.629s-.696 1.685-.667 2.966c.028 1.222.667 2.799.667 2.799H21.74s.51-1.63.532-2.8c.023-1.23-.532-2.965-.532-2.965z"/>
  <g filter="url(#filter0_f_6_229)" opacity=".05">
    <path fill="#000" d="M26.04 29.553c-1.959 0-3.323-1.725-3.76-2.588h7.45c-.414.863-1.731 2.588-3.69 2.588z"/>
  </g>
  <path fill="#E8BEAC" d="M32.492 20.183c0 2.116-.054 3.677-1.393 5.11-1.462 1.563-2.735 2.966-5.044 2.966-2.31 0-3.712-1.403-5.174-2.967-1.34-1.432-1.352-3.542-1.352-5.658 0-4.425 2.1-7.4 6.526-7.4 4.425 0 6.437 3.524 6.437 7.95z"/>
  <path fill="url(#paint1_linear_6_229)" d="M19.049 15.242c0-1.81 3.066-3.667 5.445-4.51 8.036 0 7.135 4.037 8.451 4.733 1.053.558 2.3-1.344 2.793-2.364.665 4.838-4.923 5.33-7.8 4.97-1.859-.249-5.56-1.928-7.547-1.233-.575.202-.542 3.607-.653 3.665-.62.322-.69-3.452-.69-5.261z"/>
  <path fill="#FAFAFA" d="M26.001 29.578l-4.263-1.344c-.39.247-1.279.78-1.715.924-.545.182-2.884 2.46-2.884 3.588v7.436h17.725v-7.436c0-1.129-2.34-3.406-2.884-3.588-.437-.145-1.326-.677-1.716-.924l-4.263 1.344z"/>
  <path fill="#BD1451" d="M26.01 29.612l.815.427.035 1.172-.85.76-.8-.76v-1.172l.8-.427z"/>
  <path fill="url(#paint2_linear_6_229)" d="M26.01 31.972l1.18 2.114v5.918h-2.36v-5.918l1.18-2.114z"/>
  <g filter="url(#filter1_f_6_229)" opacity=".05">
    <path fill="#272727" d="M25.78 40.007l.244-5.515.217 5.515h-.462z"/>
  </g>
  <g filter="url(#filter2_f_6_229)" opacity=".15">
    <path fill="#2C2C2C" d="M31.216 28.83l-.306-.753-3.06.713.074.986 3.292-.947z"/>
  </g>
  <path fill="url(#paint3_linear_6_229)" d="M23.662 40.182s.47-4.157.555-6.833c.054-1.708 0-4.377 0-4.377l-3.491-.447c-6.527 1.577-7.964 7.732-7.586 11.657h10.522z"/>
  <path fill="url(#paint4_linear_6_229)" d="M28.586 40.182s-.48-4.157-.566-6.833c-.055-1.708 0-4.377 0-4.377l3.563-.447c6.66 1.577 8.127 7.732 7.742 11.657H28.586z"/>
  <path fill="#FAFAFA" d="M31.43 27.854l-1.088-.521-3.723 1.379-.582.903 5.48-1.096-.087-.665z"/>
  <g filter="url(#filter3_f_6_229)" opacity=".3">
    <path fill="#2C2C2C" d="M20.773 28.821l.39-.727 3.239.94-.16.978-3.47-1.19z"/>
  </g>
  <path fill="#FAFAFA" d="M20.68 27.854l1.088-.521 3.723 1.378.582.904-5.477-1.063.085-.698z"/>
  <circle cx="29.524" cy="35.886" r=".313" fill="url(#paint5_linear_6_229)"/>
  <circle cx="29.524" cy="37.557" r=".313" fill="url(#paint6_linear_6_229)"/>
  <circle cx="29.524" cy="39.229" r=".313" fill="url(#paint7_linear_6_229)"/>
  <rect width="1.929" height=".313" x="24.651" y="36.408" fill="url(#paint8_linear_6_229)" rx=".156"/>
  <path fill="url(#paint9_linear_6_229)" fill-rule="evenodd" d="M44.587 41.44c-.42 0-.648-.499-.386-.827a23.8 23.8 0 005.238-14.932c0-13.2-10.701-23.901-23.902-23.901-13.2 0-23.901 10.701-23.901 23.901a23.8 23.8 0 005.237 14.932c.263.328.035.827-.386.827a.483.483 0 01-.377-.18A24.797 24.797 0 01.636 25.681C.636 11.93 11.785.78 25.537.78 39.29.78 50.44 11.929 50.44 25.681c0 5.896-2.05 11.314-5.474 15.58a.483.483 0 01-.378.18z" clip-rule="evenodd"/>
  <defs>
    <linearGradient id="paint0_linear_6_229" x1="25.959" x2="25.959" y1="5.276" y2="45.276" gradientUnits="userSpaceOnUse">
      <stop stop-color="#0053D0"/>
      <stop offset="1" stop-color="#fff"/>
    </linearGradient>
    <linearGradient id="paint1_linear_6_229" x1="27.421" x2="27.421" y1="10.732" y2="20.522" gradientUnits="userSpaceOnUse">
      <stop stop-color="#2E2313"/>
      <stop offset=".651" stop-color="#0B0805"/>
    </linearGradient>
    <linearGradient id="paint2_linear_6_229" x1="26.011" x2="26.011" y1="31.972" y2="40.004" gradientUnits="userSpaceOnUse">
      <stop stop-color="#BD1451"/>
      <stop offset="1" stop-color="#5F0928"/>
    </linearGradient>
    <linearGradient id="paint3_linear_6_229" x1="18.371" x2="18.371" y1="29.036" y2="40.182" gradientUnits="userSpaceOnUse">
      <stop stop-color="#020D32"/>
      <stop offset="1" stop-color="#01030C"/>
    </linearGradient>
    <linearGradient id="paint4_linear_6_229" x1="33.986" x2="33.986" y1="29.036" y2="40.182" gradientUnits="userSpaceOnUse">
      <stop stop-color="#020D32"/>
      <stop offset="1" stop-color="#01030C"/>
    </linearGradient>
    <linearGradient id="paint5_linear_6_229" x1="29.524" x2="29.524" y1="35.573" y2="36.199" gradientUnits="userSpaceOnUse">
      <stop stop-color="#D2D2D2"/>
      <stop offset="0" stop-color="#EDEDED"/>
      <stop offset="1" stop-color="#8D8D8D"/>
    </linearGradient>
    <linearGradient id="paint6_linear_6_229" x1="29.524" x2="29.524" y1="37.244" y2="37.87" gradientUnits="userSpaceOnUse">
      <stop stop-color="#D2D2D2"/>
      <stop offset="0" stop-color="#EDEDED"/>
      <stop offset="1" stop-color="#8D8D8D"/>
    </linearGradient>
    <linearGradient id="paint7_linear_6_229" x1="29.524" x2="29.524" y1="38.916" y2="39.542" gradientUnits="userSpaceOnUse">
      <stop stop-color="#D2D2D2"/>
      <stop offset="0" stop-color="#EDEDED"/>
      <stop offset="1" stop-color="#8D8D8D"/>
    </linearGradient>
    <linearGradient id="paint8_linear_6_229" x1="25.615" x2="25.615" y1="36.408" y2="36.721" gradientUnits="userSpaceOnUse">
      <stop stop-color="#EFEFEF"/>
      <stop offset="1" stop-color="#A6A6A6"/>
    </linearGradient>
    <linearGradient id="paint9_linear_6_229" x1="25.537" x2="25.537" y1=".78" y2="41.44" gradientUnits="userSpaceOnUse">
      <stop stop-color="#fff"/>
      <stop offset="1" stop-color="#0047FF"/>
    </linearGradient>
    <filter id="filter0_f_6_229" width="47.45" height="42.589" x="2.28" y="6.965" color-interpolation-filters="sRGB" filterUnits="userSpaceOnUse">
      <feFlood flood-opacity="0" result="BackgroundImageFix"/>
      <feBlend in="SourceGraphic" in2="BackgroundImageFix" result="shape"/>
      <feGaussianBlur result="effect1_foregroundBlur_6_229" stdDeviation="10"/>
    </filter>
    <filter id="filter1_f_6_229" width="8.462" height="13.515" x="21.779" y="30.492" color-interpolation-filters="sRGB" filterUnits="userSpaceOnUse">
      <feFlood flood-opacity="0" result="BackgroundImageFix"/>
      <feBlend in="SourceGraphic" in2="BackgroundImageFix" result="shape"/>
      <feGaussianBlur result="effect1_foregroundBlur_6_229" stdDeviation="2"/>
    </filter>
    <filter id="filter2_f_6_229" width="43.365" height="41.699" x="7.851" y="8.077" color-interpolation-filters="sRGB" filterUnits="userSpaceOnUse">
      <feFlood flood-opacity="0" result="BackgroundImageFix"/>
      <feBlend in="SourceGraphic" in2="BackgroundImageFix" result="shape"/>
      <feGaussianBlur result="effect1_foregroundBlur_6_229" stdDeviation="10"/>
    </filter>
    <filter id="filter3_f_6_229" width="43.629" height="41.918" x=".773" y="8.094" color-interpolation-filters="sRGB" filterUnits="userSpaceOnUse">
      <feFlood flood-opacity="0" result="BackgroundImageFix"/>
      <feBlend in="SourceGraphic" in2="BackgroundImageFix" result="shape"/>
      <feGaussianBlur result="effect1_foregroundBlur_6_229" stdDeviation="10"/>
    </filter>
  </defs>
</svg>
