<svg xmlns="http://www.w3.org/2000/svg" width="73" height="63" fill="none" viewBox="0 0 73 63">
  <path fill="url(#paint0_linear_5_48)" fill-rule="evenodd" d="M57.01 57.495c5.807-5.339 9.446-12.998 9.446-21.508 0-16.13-13.077-29.208-29.208-29.208-16.132 0-29.209 13.077-29.209 29.208 0 8.51 3.64 16.17 9.446 21.508H57.01z" clip-rule="evenodd"/>
  <path fill="#894C1A" d="M18.581 57.495c0-9.49 7.693-17.183 17.183-17.183h3.485c9.49 0 17.183 7.693 17.183 17.183h-37.85z"/>
  <path fill="#894C1A" d="M30.972 33.217H43.59s-1.018 2.464-.975 4.336c.04 1.787.975 4.093.975 4.093H30.972s.746-2.383.779-4.093c.033-1.798-.779-4.336-.779-4.336z"/>
  <g filter="url(#filter0_f_5_48)" opacity=".1">
    <path fill="#000" d="M37.168 42.205c-2.864 0-4.859-2.524-5.498-3.786h10.893c-.605 1.262-2.531 3.786-5.395 3.786z"/>
  </g>
  <ellipse cx="37.117" cy="27.197" fill="#894C1A" rx="9.992" ry="13.115"/>
  <path fill="#241C11" d="M27.612 22.415a9.504 9.504 0 1119.008 0v.854H27.613v-.854z"/>
  <path fill="#FAFAFA" d="M37.15 41.408c-2.128 0-4.464-.794-5.592-2.289l-.338 1.645-.105 16.712H43.96l-.687-16.698-.41-1.659c-1.177 1.495-3.584 2.289-5.712 2.289z"/>
  <path fill="#5A00A0" d="M39.277 46.933l3.977-6.157c12.09 3.123 14.017 12.447 13.469 16.719H39.277V46.933zM35.218 46.933l-3.977-6.157c-12.09 3.123-14.016 12.447-13.468 16.719h17.445V46.933z"/>
  <path fill="url(#paint1_linear_5_48)" fill-rule="evenodd" d="M64.557 59.594c-.42 0-.65-.496-.386-.823a35.219 35.219 0 007.827-22.191c0-19.533-15.834-35.367-35.367-35.367C17.1 1.213 1.266 17.047 1.266 36.58a35.219 35.219 0 007.827 22.19c.264.328.035.824-.386.824a.489.489 0 01-.38-.181A36.215 36.215 0 01.265 36.58C.265 16.495 16.545.213 36.631.213c20.084 0 36.366 16.282 36.366 36.367a36.214 36.214 0 01-8.06 22.833.489.489 0 01-.38.181z" clip-rule="evenodd"/>
  <defs>
    <linearGradient id="paint0_linear_5_48" x1="37.248" x2="37.248" y1="6.779" y2="65.196" gradientUnits="userSpaceOnUse">
      <stop stop-color="#DB00FF"/>
      <stop offset="1" stop-color="#FAFF00"/>
    </linearGradient>
    <linearGradient id="paint1_linear_5_48" x1="36.632" x2="36.632" y1=".213" y2="59.594" gradientUnits="userSpaceOnUse">
      <stop stop-color="#FAFF00"/>
      <stop offset="1" stop-color="#FF00A8"/>
    </linearGradient>
    <filter id="filter0_f_5_48" width="50.894" height="43.785" x="11.67" y="18.419" color-interpolation-filters="sRGB" filterUnits="userSpaceOnUse">
      <feFlood flood-opacity="0" result="BackgroundImageFix"/>
      <feBlend in="SourceGraphic" in2="BackgroundImageFix" result="shape"/>
      <feGaussianBlur result="effect1_foregroundBlur_5_48" stdDeviation="10"/>
    </filter>
  </defs>
</svg>
