<svg xmlns="http://www.w3.org/2000/svg" width="50" height="59" fill="none" viewBox="0 0 50 59">
  <path fill="url(#paint0_linear_6_227)" fill-rule="evenodd" d="M38.924 39.705a19.947 19.947 0 006.468-14.726c0-11.046-8.955-20-20-20-11.046 0-20 8.954-20 20a19.947 19.947 0 006.467 14.726h27.065z" clip-rule="evenodd"/>
  <path fill="url(#paint1_linear_6_227)" d="M26.46 20.059c-1.872-1.952-1.424-4.406-.967-5.389-.528-1.505-1.338-.796-1.677-.254-.644.644-1.82 2.44-1.373 4.474.56 2.541 8.134 6.557 9.913 8.082 1.423 1.22 1.78 2.78 1.78 3.406.203-.237.487-1.088 0-2.592-.61-1.881-5.339-5.287-7.677-7.727z"/>
  <path fill="#E8BEAC" d="M13.137 39.236c0-6.213 5.037-11.25 11.25-11.25h2.282c6.213 0 11.25 5.037 11.25 11.25H13.137z"/>
  <path fill="#E8BEAC" d="M21.25 23.341h8.26s-.666 1.613-.638 2.839c.026 1.17.639 2.68.639 2.68H21.25s.488-1.56.51-2.68c.022-1.177-.51-2.839-.51-2.839z"/>
  <g filter="url(#filter0_f_6_227)" opacity=".05">
    <path fill="#000" d="M25.306 29.225c-1.875 0-3.18-1.652-3.6-2.478h7.133c-.396.826-1.658 2.478-3.533 2.478z"/>
  </g>
  <ellipse cx="25.273" cy="19.399" fill="#E8BEAC" rx="6.542" ry="8.587"/>
  <path fill="#4A320E" d="M24.702 27.957l.302-1.54h.452l.332 1.54c-.41.265-.895.11-1.086 0zM26.798 24.876a.943.943 0 00-.802-.18c-.35.161-.146.346 0 .419-.035-.08.02-.191.516 0 .495.19 1.011-.006 1.207-.127-.286.11-.556.19-.921-.112zM23.692 24.876a.943.943 0 01.803-.18c.349.161.145.346 0 .419.034-.08-.02-.191-.517 0-.495.19-1.011-.006-1.207-.127.286.11.556.19.921-.112z"/>
  <path fill="url(#paint2_linear_6_227)" d="M25.589 16.173c2.813 0 1.84-1.193 1.84-2.645-.115-.976 0-2.685 0-2.685s-.203-1.057-1.84-1.057c-1.738 0-1.975 1.057-1.975 1.057s.065 1.741 0 2.685c-.086 1.246-.838 2.645 1.975 2.645z"/>
  <g filter="url(#filter1_f_6_227)" opacity=".15">
    <path fill="#000" d="M22.142 27.862c-.554-.166-.615.131-.577.3l3.932 2.94c1.072-.776 3.295-2.391 3.608-2.64.314-.25-.192-.419-.484-.473-1.614.221-2.701 1.653-3.043 2.34-.462-1.418-2.744-2.26-3.436-2.467z"/>
  </g>
  <path fill="url(#paint3_linear_6_227)" d="M25.478 31.622c.176-2.215 2.864-3.269 4.186-3.519 6.301 0 8.574 7.422 8.923 11.133h-13.11c-.073-1.615-.175-5.4 0-7.614z"/>
  <g filter="url(#filter2_f_6_227)" opacity=".15">
    <path fill="#000" d="M26.298 32.249c-.513-1.008-2.354-.964-3.21-.816l-1.186 7.46c1.465.05 4.49.118 4.866 0 .469-.148.173-5.385-.47-6.644z"/>
  </g>
  <path fill="url(#paint4_linear_6_227)" d="M26.062 31.622c-.185-2.215-3.002-3.269-4.388-3.519-6.605 0-8.987 7.422-9.353 11.133h13.74c.078-1.615.186-5.4 0-7.614z"/>
  <rect width="2.307" height=".577" x="24.69" y="32.103" fill="url(#paint5_linear_6_227)" rx=".288"/>
  <rect width="2.307" height=".577" x="24.702" y="33.815" fill="url(#paint6_linear_6_227)" rx=".288"/>
  <rect width="2.307" height=".577" x="24.702" y="35.526" fill="url(#paint7_linear_6_227)" rx=".288"/>
  <path fill="url(#paint8_linear_6_227)" fill-rule="evenodd" d="M44.02 41.143c-.42 0-.649-.499-.386-.827a23.801 23.801 0 005.237-14.932c0-13.2-10.7-23.901-23.901-23.901-13.2 0-23.902 10.7-23.902 23.901a23.8 23.8 0 005.238 14.932c.262.328.034.827-.386.827a.483.483 0 01-.378-.18A24.796 24.796 0 01.068 25.384C.068 11.631 11.218.483 24.97.483S49.87 11.63 49.87 25.384c0 5.896-2.05 11.313-5.474 15.579a.484.484 0 01-.377.18z" clip-rule="evenodd"/>
  <defs>
    <linearGradient id="paint0_linear_6_227" x1="25.392" x2="25.392" y1="4.979" y2="44.978" gradientUnits="userSpaceOnUse">
      <stop stop-color="red"/>
      <stop offset="1" stop-color="#BD00FF"/>
    </linearGradient>
    <linearGradient id="paint1_linear_6_227" x1="28.374" x2="28.374" y1="13.766" y2="30.378" gradientUnits="userSpaceOnUse">
      <stop stop-color="#4A320E"/>
      <stop offset="1" stop-color="#221706"/>
    </linearGradient>
    <linearGradient id="paint2_linear_6_227" x1="25.525" x2="25.525" y1="9.786" y2="16.173" gradientUnits="userSpaceOnUse">
      <stop stop-color="#4A320E"/>
      <stop offset="1" stop-color="#221706"/>
    </linearGradient>
    <linearGradient id="paint3_linear_6_227" x1="31.984" x2="31.984" y1="28.103" y2="39.236" gradientUnits="userSpaceOnUse">
      <stop stop-color="#850000"/>
      <stop offset="1" stop-color="#4E0303"/>
    </linearGradient>
    <linearGradient id="paint4_linear_6_227" x1="19.242" x2="19.242" y1="28.103" y2="39.236" gradientUnits="userSpaceOnUse">
      <stop stop-color="#850000"/>
      <stop offset="1" stop-color="#4E0303"/>
    </linearGradient>
    <linearGradient id="paint5_linear_6_227" x1="25.844" x2="25.844" y1="32.103" y2="32.68" gradientUnits="userSpaceOnUse">
      <stop stop-color="#fff"/>
      <stop offset="1" stop-color="#C4C4C4"/>
    </linearGradient>
    <linearGradient id="paint6_linear_6_227" x1="25.855" x2="25.855" y1="33.815" y2="34.392" gradientUnits="userSpaceOnUse">
      <stop stop-color="#fff"/>
      <stop offset="1" stop-color="#C4C4C4"/>
    </linearGradient>
    <linearGradient id="paint7_linear_6_227" x1="25.855" x2="25.855" y1="35.526" y2="36.103" gradientUnits="userSpaceOnUse">
      <stop stop-color="#fff"/>
      <stop offset="1" stop-color="#C4C4C4"/>
    </linearGradient>
    <linearGradient id="paint8_linear_6_227" x1="24.97" x2="24.97" y1=".483" y2="41.143" gradientUnits="userSpaceOnUse">
      <stop stop-color="#C901D1"/>
      <stop offset="1" stop-color="#FE0106"/>
    </linearGradient>
    <filter id="filter0_f_6_227" width="47.132" height="42.478" x="1.707" y="6.747" color-interpolation-filters="sRGB" filterUnits="userSpaceOnUse">
      <feFlood flood-opacity="0" result="BackgroundImageFix"/>
      <feBlend in="SourceGraphic" in2="BackgroundImageFix" result="shape"/>
      <feGaussianBlur result="effect1_foregroundBlur_6_227" stdDeviation="10"/>
    </filter>
    <filter id="filter1_f_6_227" width="47.648" height="43.289" x="1.556" y="7.813" color-interpolation-filters="sRGB" filterUnits="userSpaceOnUse">
      <feFlood flood-opacity="0" result="BackgroundImageFix"/>
      <feBlend in="SourceGraphic" in2="BackgroundImageFix" result="shape"/>
      <feGaussianBlur result="effect1_foregroundBlur_6_227" stdDeviation="10"/>
    </filter>
    <filter id="filter2_f_6_227" width="45.096" height="47.605" x="1.902" y="11.354" color-interpolation-filters="sRGB" filterUnits="userSpaceOnUse">
      <feFlood flood-opacity="0" result="BackgroundImageFix"/>
      <feBlend in="SourceGraphic" in2="BackgroundImageFix" result="shape"/>
      <feGaussianBlur result="effect1_foregroundBlur_6_227" stdDeviation="10"/>
    </filter>
  </defs>
</svg>
